<?xml version="1.0" encoding="UTF-8"?>
<svg width="248px" height="76px" viewBox="0 0 248 76" version="1.1" xmlns="http://www.w3.org/2000/svg" xmlns:xlink="http://www.w3.org/1999/xlink">
    <title>main logo</title>
    <g id="Page-1" stroke="none" stroke-width="1" fill="none" fill-rule="evenodd">
        <g id="main-logo">
            <rect id="Rectangle" fill="#000000" x="0" y="0" width="248" height="76"></rect>
            <path d="M171.119052,19.9057923 C170.892385,21.1889863 170.543867,22.4471231 170.328991,23.7329547 C170.057777,25.1348408 169.888759,26.5538714 169.692226,27.9676268 C169.199585,31.7077482 168.695151,35.4465509 168.19989,39.1866724 C167.705938,42.5654422 167.429482,45.9692693 167.028556,49.3572707 C166.889673,50.7129988 166.695761,52.0634517 166.740308,53.4297302 C167.666631,53.6552453 168.617849,53.743605 169.562515,53.8517467 C170.579243,53.9572508 171.576318,53.7000845 172.579943,53.5827112 C172.472506,54.108913 172.393893,54.6390713 172.368999,55.1758236 C171.53308,55.2140688 170.701093,55.3050661 169.863865,55.2958345 C166.93291,55.2852841 164.000646,55.3077037 161.069691,55.2839653 C161.689424,53.4996267 162.415284,51.7324325 162.704841,49.8531401 C163.00095,48.2521149 163.130662,46.6286701 163.386154,45.0223697 C161.526957,45.0091817 159.66776,45.0289637 157.809872,45.0606149 C156.503587,45.2294215 155.184199,45.1489746 153.872672,45.1951327 C153.281764,45.1674379 153.093093,45.8373891 152.793053,46.2224792 C150.369153,49.9375434 147.87057,53.6183188 145.018228,57.0168707 C144.032946,58.098288 143.038491,59.215313 141.792475,60 L133.623275,60 C133.695337,59.4065393 133.780501,58.7379068 134.279694,58.3383099 C134.785437,57.8437593 135.553224,57.9347566 136.178198,58.0996068 C137.247334,58.3660048 138.36888,58.8869314 139.477323,58.4939285 C141.070546,57.9624515 142.237949,56.6726634 143.375217,55.4949736 C146.463397,52.1056533 149.026181,48.2784909 151.575862,44.475067 C154.856644,39.4543891 158.09812,34.40206 161.660599,29.575246 C163.096596,27.5878119 164.653133,25.6953315 166.195258,23.7923007 C164.856217,23.9663826 163.501453,23.9439629 162.166342,24.1549712 C161.321253,24.2011292 160.481404,24.2947642 159.644176,24.4174127 C158.609105,24.5163228 157.571413,24.7339251 156.649021,25.2337509 C155.020421,26.0329447 153.695793,27.5825367 153.410165,29.4117146 C153.245078,30.3638894 153.718066,31.2342984 153.98273,32.1165767 C154.130784,32.6994871 154.204157,33.4195528 153.762614,33.8982778 C153.089162,34.7897877 151.583724,34.6790083 150.95744,33.7874984 C150.283989,32.9184081 150.387496,31.7552251 150.433353,30.7226034 C150.728152,28.2261119 152.22966,25.957773 154.299802,24.5809441 C156.28478,23.2621425 158.623517,22.5776844 160.962253,22.2532592 C162.133587,22.1503927 163.295749,21.9433408 164.473634,21.928834 C165.854602,21.7323326 167.267015,21.7151881 168.620469,21.3485613 C169.565135,21.0953514 170.349955,20.4847462 171.119052,19.9057923 Z M94.4032535,31.0457098 C93.6380871,33.5079125 92.9240191,35.9872596 92.1889876,38.4586939 C91.2377704,41.7134963 90.4778448,45.0210509 89.8109446,48.3457498 C89.6144121,49.4139792 89.3510586,50.4835273 89.3458177,51.5768139 C89.293409,51.9961928 89.7480542,52.4379913 90.1594622,52.2362147 C91.3530694,51.828705 92.360626,51.0215984 93.3511497,50.2606498 C93.8411706,49.913805 94.2054108,49.40211 94.7321179,49.1080172 C95.0216757,49.4667312 95.5064559,49.8228077 95.5143171,50.3081267 C94.9574751,50.9385139 94.2722319,51.4357021 93.6695323,52.0186124 C91.8915684,53.6631581 89.8528715,55.1138399 87.5075839,55.7890663 C86.8026874,55.964467 86.025729,56.0726087 85.3260734,55.8259928 C84.7155125,55.5543196 84.5622171,54.7946899 84.706341,54.1959539 C85.009001,52.8085746 85.5501204,51.4858166 85.8475396,50.0971184 C84.7181329,51.2392006 83.599208,52.4037025 82.3034038,53.3598337 C80.9355378,54.3634418 79.5113324,55.385513 77.8486676,55.8207176 C76.725812,56.0910719 75.3959423,56.0488703 74.5023746,55.2233004 C73.5262633,54.2724444 73.1292677,52.8890215 72.979903,51.5662635 C72.8646039,49.7436796 73.2419463,47.9250521 73.8079598,46.2013784 C74.7251114,43.4727777 76.1414555,40.9156213 77.9547952,38.6881654 C79.4261683,36.8827259 81.1438622,35.2526871 83.1511139,34.0644468 C84.2320426,33.4024084 85.4295805,32.9355526 86.6742862,32.7047623 C88.3657757,32.3354978 90.1096739,32.4818848 91.8260576,32.500348 C92.0723783,32.1508656 92.240086,31.7182986 92.5768117,31.4466255 C93.1611683,31.2290232 93.7926926,31.1657208 94.4032535,31.0457098 Z M137.856585,32.3051654 C138.85759,32.8854381 139.447188,34.04994 139.420983,35.2025726 C139.550695,37.108241 138.515624,38.889942 137.173962,40.1559916 C134.774956,42.407186 131.695947,43.670598 128.772854,45.0632525 C128.14395,45.3744897 127.458706,45.5841792 126.880901,45.9864137 C126.650303,47.2841145 126.599204,48.610829 126.702712,49.9243554 C126.810149,50.6074947 127.000131,51.3592116 127.571385,51.802329 C128.14657,52.2058823 128.890773,52.3799641 129.582567,52.2283019 C131.435214,51.9223399 133.012714,50.8211405 134.544357,49.7977504 C135.340969,49.2702298 136.086482,48.670175 136.889645,48.1545236 C137.16086,48.5567581 137.468761,48.9378918 137.691498,49.3717775 C137.833001,49.6368566 137.5251,49.8122573 137.379666,49.9837015 C135.95153,51.2840399 134.455263,52.5210759 132.837145,53.5747984 C131.126003,54.6746789 129.248462,55.5978401 127.222867,55.9024833 C125.987333,56.0620583 124.598504,55.990843 123.617152,55.1243903 C122.57946,54.2553 122.287282,52.8494575 122.120884,51.5702199 C122.090749,50.685304 122.105162,49.7990692 122.114333,48.9141533 C122.358034,46.2607244 123.056379,43.6481784 124.194957,41.2387277 C125.248371,39.0205034 126.523212,36.8800883 128.201599,35.079924 C129.797443,33.3839451 131.89772,32.0796503 134.232526,31.7921515 C135.449717,31.662909 136.767795,31.6549962 137.856585,32.3051654 Z M119.161105,31.3015573 C119.626232,31.2738625 120.015366,31.8303968 119.833246,32.2669201 C119.610509,32.7324571 119.233167,33.0977652 118.895131,33.47758 C117.748692,34.6592263 116.591771,35.8290034 115.382441,36.9433908 C112.333567,39.8988253 109.223113,42.7883197 106.176859,45.7477106 C104.919051,46.8977056 103.684827,48.0727579 102.43226,49.2280281 C101.88197,49.7027967 101.343471,50.1947097 100.842968,50.7235492 C102.014301,50.7288244 103.188255,50.6496963 104.359589,50.724868 C107.037672,51.1429281 109.478605,52.4920622 112.1711,52.8520951 C113.003087,53.0156265 113.907137,53.0222205 114.682785,52.6358116 C115.219974,52.3628197 115.652345,51.7983725 115.578973,51.1666666 C115.703444,50.1551457 114.761398,49.4007912 114.862285,48.3932267 C114.811186,47.9342837 114.997237,47.4898476 115.344444,47.1931172 C115.775506,46.7196674 116.477782,46.8119835 117.047726,46.8924304 C117.823374,47.2353188 118.292432,48.0833083 118.300293,48.9194285 C118.389388,50.1604209 117.873162,51.343386 117.211503,52.3588632 C116.137125,54.0324225 114.422052,55.3063849 112.47245,55.7165322 C110.377414,56.2269085 108.198523,55.8892953 106.141483,55.365731 C104.347797,54.9081068 102.582935,54.3251965 100.757804,53.9928585 C100.090904,53.8319647 99.397799,53.8306459 98.7177966,53.8702099 C97.7023788,54.0574798 97.0249968,54.919976 96.1615641,55.4052951 C95.6898862,55.5424504 95.1749711,55.4725539 94.7124646,55.3288046 C94.5604795,54.6232457 94.9522343,53.9981337 95.4330837,53.5246839 C97.4400734,51.4000944 99.5852647,49.4193599 101.746399,47.455717 L103.908319,45.4930764 C104.627712,44.8376319 105.344348,44.1793917 106.053699,43.5136606 C108.996445,40.8035232 111.840925,37.9878817 114.644789,35.1326761 C112.827518,35.1128941 111.010248,35.1946598 109.192978,35.1537769 C108.398987,35.166965 107.636441,34.8847414 106.842449,34.8913354 C105.943641,34.907161 104.998975,34.5128393 104.147334,34.9731011 C103.412302,35.3001639 103.39789,36.2259627 103.531532,36.9077831 C103.721326,37.2265563 104.035538,37.3377394 104.367523,37.4191629 L104.701483,37.4972529 C105.033468,37.5785956 105.347679,37.6894557 105.537474,38.0076637 C105.69732,38.4732007 105.669806,39.0851247 105.253157,39.4135063 C104.751344,39.8935501 103.94294,39.8368416 103.372996,39.5163728 C102.49253,38.9954461 101.851835,38.0683286 101.697229,37.0502137 C101.627787,36.2615703 101.626477,35.4320441 101.982856,34.7067032 C102.780778,32.9645662 104.641286,31.9002933 106.497862,31.7486311 C108.788121,31.6035629 111.016799,32.2695577 113.279543,32.4845224 C113.888794,32.506942 114.486253,32.6691546 115.099434,32.646735 C116.082096,32.6823427 117.058208,32.3500046 117.869232,31.8013832 C118.263607,31.5613613 118.668464,31.2342984 119.161105,31.3015573 Z M221.220422,16.0337906 C222.043238,16.1854528 222.833299,16.8079272 222.976112,17.6704235 C223.011488,18.1583801 223.045554,18.6938136 222.77958,19.1290181 C222.507055,19.6235687 221.990829,19.9348059 221.462812,20.0798741 C220.287548,20.1919722 219.110973,20.0745989 217.952742,19.8820539 C216.822025,19.8939231 215.648071,19.4349801 214.55404,19.8939231 C213.901553,20.1247134 213.429875,20.6838853 213.125904,21.2878964 C212.37646,22.7253902 212.067249,24.3343282 211.64929,25.8891954 C209.881808,33.1623865 208.221764,40.4619536 206.50276,47.7483327 C206.242027,48.9220662 205.974743,50.099756 205.856823,51.2998655 C205.808345,51.7021 206.028461,52.167637 206.44511,52.2665471 C206.971817,52.3219368 207.524729,52.2045635 207.989856,51.9434407 C209.239802,51.0941325 210.276183,49.9652383 211.507787,49.0908728 C211.754108,49.4706876 212.001739,49.8505025 212.241508,50.2369114 C210.666628,51.6374787 209.04327,52.9958444 207.294131,54.1708967 C206.109695,54.9173384 204.851887,55.6004777 203.47747,55.9038021 C202.742438,56.0541455 201.780739,55.984249 201.386364,55.2404449 C201.284167,54.714243 201.349678,54.1682591 201.48463,53.6552453 C201.799082,52.5118442 202.171184,51.3842688 202.44764,50.2303174 C201.618273,50.9160942 200.929099,51.7535333 200.101042,52.4419478 C198.841924,53.5602916 197.493711,54.6206081 195.934553,55.2826465 C195.022643,55.6690554 194.050462,55.990843 193.049456,55.9618294 C191.98163,56.0013934 190.981935,55.3406738 190.423782,54.4531203 C189.74116,53.4099482 189.569521,52.1241166 189.581313,50.8989498 C189.56428,48.2336517 190.434264,45.6553945 191.533536,43.2617695 C192.660322,40.8800137 194.001984,38.577386 195.73147,36.5859955 C197.175328,34.9084798 198.951982,33.5184629 200.944821,32.5649693 C202.044093,32.0690999 203.232459,31.6866474 204.450961,31.7328055 C205.024836,31.7459935 205.59347,31.855454 206.168655,31.875236 C206.785767,29.3365429 207.442185,26.7899369 208.478566,24.3870803 C209.436335,22.2915045 210.819923,20.3568224 212.645055,18.9417483 C214.580245,17.3934751 216.941255,16.4109679 219.379568,16.037747 C219.991439,16.0034582 220.607241,15.9955454 221.220422,16.0337906 Z M186.611052,32.187792 C187.14038,32.6572854 186.975293,33.4459288 186.856063,34.0591716 C185.659835,38.7923507 184.104608,43.4279385 182.954238,48.1743056 C182.648958,49.5893798 182.195623,51.017642 182.388224,52.4828306 C182.523177,53.0050761 183.192697,52.9022095 183.532043,52.6569124 C184.996866,51.655942 186.147236,50.2804319 187.424697,49.0631779 C187.803349,49.4337612 188.1689,49.8188513 188.495144,50.2382302 C186.873096,51.8445306 185.201259,53.4218174 183.318478,54.7168806 C182.263754,55.3564994 181.101592,56.0383198 179.825441,55.9552353 C179.038001,55.9222653 178.289867,55.3499054 178.076302,54.5823628 C177.82474,52.4920622 178.399925,50.4347316 178.833607,48.4090523 C179.652492,44.9709364 180.637775,41.5737034 181.659744,38.1909771 C181.909995,37.3100176 182.279476,36.443565 182.276856,35.5111722 C181.604715,35.2526871 180.931264,35.6562404 180.367871,35.9938536 C179.33411,36.7099629 178.418268,37.5790532 177.456569,38.384841 C177.009786,38.1092114 176.591827,37.7900614 176.193521,37.4484918 C177.740886,35.7511941 179.382588,34.0789536 181.399011,32.9500594 C182.385604,32.4040755 183.435087,31.9279881 184.555323,31.7578627 C185.254978,31.6906038 186.056831,31.6787346 186.611052,32.187792 Z M80.241123,16.0364282 C80.9892567,16.1828152 81.7229779,16.6747282 81.9692986,17.4304016 C82.0597036,17.8418677 82.0557729,18.278391 81.9666782,18.6898572 C81.7465618,19.4231109 81.0560777,19.8978795 80.3459403,20.0706425 C78.2063567,20.3607788 76.1139409,19.4732253 73.9730471,19.7343481 C73.3847599,19.8372146 72.8082646,20.1326262 72.4951229,20.6641032 C71.8721149,21.6403461 71.5387467,22.753085 71.2363323,23.8682349 L71.0364697,24.6105538 C71.0029773,24.7338427 70.9691573,24.8567935 70.934655,24.9792222 C69.9048248,28.9580468 69.004706,32.9698414 68.0430071,36.9671292 C66.9214617,41.6976707 65.7972959,46.4282122 64.7504329,51.177217 C64.6534769,51.7113316 64.3901234,52.3746889 64.8526298,52.8178062 C65.3374099,52.8995719 65.8497046,52.8270378 66.2820761,52.5856971 C68.2395396,51.5451626 69.9113759,50.0628296 71.5753509,48.6134666 C71.8871824,48.9312978 72.205565,49.2451726 72.5029842,49.5775106 C70.5992395,51.6612172 68.3928349,53.4758882 65.94273,54.8711804 C64.8552502,55.4409027 63.6786758,56.0013934 62.4247986,55.9591917 C61.7670699,55.9657858 61.1735418,55.5266248 60.8682613,54.9621777 C60.4961598,54.242112 60.4503023,53.3980789 60.5944261,52.6107544 C60.8813635,49.9494126 61.5508841,47.3487358 62.1496531,44.7454213 C63.0537025,41.0052999 63.9800256,37.2717724 64.8880057,33.5329697 C65.4723622,31.1947344 66.0423064,28.8512239 66.7485131,26.5472774 C67.2346035,24.993729 67.7508288,23.4230363 68.6352249,22.0462074 C71.0355416,18.1359605 75.6710877,15.6671638 80.241123,16.0364282 Z M49.0448673,21.5516567 C50.6472621,21.749477 52.2771715,22.0976406 53.6895849,22.919254 C55.0613817,23.7421863 56.2746422,24.967353 56.7895573,26.5169449 C57.1341442,27.4374685 57.005743,28.4423954 56.9887102,29.402483 C56.6873604,31.4017863 55.5802274,33.252065 54.0158289,34.5115205 C52.9689658,35.4069869 51.6875741,35.9239571 50.4730033,36.5332435 C51.1805203,36.8576687 51.9666502,36.95526 52.679408,37.2717724 C54.3708975,37.939086 55.783311,39.322509 56.4056638,41.0501391 C57.1682098,43.1259329 56.8406557,45.4509802 56.0204602,47.4555587 C55.069243,49.7436796 53.3279652,51.6335223 51.251272,52.9417736 C49.3763521,54.1379267 47.2695239,54.9911913 45.0696704,55.3274858 C44.1878946,55.5345376 43.2759839,55.4474967 42.3797958,55.4685975 C40.9189044,55.4290335 39.4488414,55.525306 37.9971215,55.332761 C35.1644334,55.2549517 32.3134022,55.2140688 29.5174001,55.7284015 C29.6575933,55.21275 29.7597902,54.6852294 29.9288081,54.1788095 C30.3860737,53.9783517 30.8957479,54.0034089 31.3765974,53.9058176 C32.6357154,53.7251418 33.9354503,53.158057 34.6141424,52.02125 C35.5666698,50.4479197 36.039658,48.6424802 36.5021644,46.8766048 C37.842516,41.4114908 39.2116922,35.9542895 40.5363212,30.4865379 C40.6516202,29.8587883 40.9791743,29.0793765 40.4773614,28.5413055 C40.1170519,28.0915941 39.5051807,28.1245642 38.9889554,28.1140137 C39.0714991,27.7289237 39.1750062,27.3491088 39.2981665,26.9758879 C39.9296909,26.8321385 40.5782481,26.8229069 41.2176337,26.7371848 C42.8396818,26.5485962 44.4302847,26.1753753 46.0300591,25.8601817 C45.9278622,26.5802474 45.6553372,27.2567927 45.4430821,27.9478447 C44.6530215,30.432467 44.1695516,32.998855 43.5406477,35.525679 C43.4358303,35.9265947 43.3663889,36.3341044 43.3100496,36.7442517 C44.8849298,36.8141482 46.4781531,36.5569819 47.9521467,35.991216 C49.9738108,35.2276298 51.5866874,33.5487953 52.4330873,31.5666365 C52.7593312,30.7555734 53.0017213,29.8917584 52.9611045,29.0094801 C52.93359,28.2234743 53.0685423,27.3992232 52.7567108,26.6527815 C52.2562081,25.2007809 50.9944695,24.1220012 49.5676437,23.644595 C47.8617418,23.0643222 46.0195773,23.0366274 44.2429237,23.1975212 C41.6067681,23.4138047 39.0230211,24.1932164 36.675113,25.4157456 C33.4441191,27.0655664 30.6035696,29.5923904 28.8164343,32.7852092 C27.4629806,35.1366325 26.6401646,37.8731459 26.8904159,40.6070218 C27.0437113,41.5196325 27.3516122,42.4256492 27.895352,43.1813226 C28.699825,44.2390015 29.9812168,44.7586093 30.8747844,45.7200157 C31.4827249,46.3530405 31.5102394,47.52018 30.7869999,48.0780331 C30.0558991,48.7374339 28.9487661,48.3892703 28.2464901,47.8604308 C26.4292197,46.4387626 25.3299481,44.2073503 25.0823171,41.9245046 C24.8766131,39.8157408 25.0469413,37.6581813 25.7007393,35.6364583 C26.8196643,32.0717375 29.0339302,28.8762811 31.9295087,26.5406834 C35.2679405,23.8621972 39.3649876,22.1648995 43.6022278,21.6597985 C44.4499379,21.4738474 45.3212319,21.5714388 46.1781135,21.4923107 C47.1345716,21.3947193 48.0884093,21.5556131 49.0448673,21.5516567 Z M42.7663097,38.5721108 C42.635288,39.2908577 42.4361351,39.9950978 42.2671172,40.7059319 C41.4927792,43.7958841 40.8193279,46.9214441 39.7593627,49.9296306 C39.5078012,50.6233203 39.2378966,51.3156911 38.8500725,51.9434407 C38.5683759,52.4076589 38.2224788,52.8270378 37.939472,53.2899372 C39.446221,53.603812 40.9739335,53.8926296 42.5173686,53.8688911 C44.2534055,53.769981 46.0300591,53.4363242 47.5210855,52.4841494 C49.3606295,51.3025031 50.6433315,49.3717775 51.3429871,47.3184033 C51.8356285,45.6870457 52.1251864,43.8868815 51.5762057,42.2317854 C51.1988633,41.0699211 50.3996312,40.0412559 49.333115,39.4451575 C48.2613578,38.8134515 46.991758,38.7620183 45.7915997,38.6011245 C44.7840432,38.5536476 43.7738662,38.5721108 42.7663097,38.5721108 Z M86.2628782,35.4135809 C84.8989428,35.5243602 83.5219052,35.8830743 82.3964292,36.6954561 C80.9617421,37.7373094 79.9921819,39.2816261 79.2073622,40.8483625 C77.9652769,43.3039711 77.2367965,46.0312529 77.1843878,48.790186 C77.2040411,49.594655 77.306238,50.4294564 77.6717884,51.1561161 C78.0962985,52.0186124 79.1693659,52.4722802 80.083897,52.2085199 C81.6574671,51.9012391 82.963753,50.8501542 84.0433714,49.7093907 C85.7204486,47.8749376 86.503958,45.445705 87.0896248,43.0744996 C87.5377189,41.3758831 88.0002253,39.6825418 88.4470092,37.9839253 C88.6435416,37.2229767 88.8924828,36.4738974 89.0104023,35.6958044 C88.0919405,35.6219515 87.1878911,35.3647852 86.2628782,35.4135809 Z M201.413879,34.8794662 C200.327709,35.1326761 199.331945,35.7261369 198.540574,36.509505 C197.54874,37.4722302 196.870048,38.7013534 196.271279,39.9357517 C195.18773,42.2449734 194.330848,44.6834377 193.933853,47.2128992 C193.882754,48.1743056 193.834276,49.1436248 193.927301,50.1037124 C194.193275,51.2814023 195.292547,52.4208469 196.564767,52.2599531 C197.8514,52.0383944 198.955913,51.2748083 199.922852,50.4294564 C200.860967,49.5867422 201.681163,48.6015974 202.286483,47.4898476 C202.878701,46.3002885 203.180051,44.9946748 203.546911,43.7220313 C204.002867,41.9983575 204.410344,40.2601769 204.804719,38.5206775 C205.010423,37.4115654 205.387766,36.3341044 205.492583,35.2078478 C204.14568,35.027172 202.771263,34.4970137 201.413879,34.8794662 Z M131.828279,34.2055586 C130.575712,34.8966106 129.764688,36.1560662 129.177711,37.4287098 C128.50688,38.9545633 128.001136,40.5529509 127.605451,42.1724393 C127.47705,42.7513932 127.302791,43.3290284 127.318513,43.9290831 C128.234355,43.6033391 129.074203,43.1074697 129.921914,42.6366575 C131.310743,41.8374637 132.651095,40.9169401 133.77395,39.7616699 C134.678,38.8464216 135.452338,37.6252112 135.34883,36.28399 C135.381586,35.3370904 134.877152,34.3242507 133.958691,33.9879563 C133.266896,33.6516619 132.471595,33.8639889 131.828279,34.2055586 Z M166.041963,26.8967598 C164.119875,29.5027119 162.176824,32.0967947 160.422444,34.8227577 C158.64448,37.5223447 156.795765,40.1757736 155.063659,42.9043742 C157.908139,42.9610827 160.756549,42.9505323 163.60234,42.918881 C164.163112,38.3202197 164.75533,33.7202395 165.655449,29.1730115 C165.795642,28.4160193 166.052445,27.6748528 166.041963,26.8967598 Z M189.479116,20.180103 C190.110641,20.5915691 190.404129,21.3920817 190.339929,22.1279731 C190.242973,23.1737828 189.597036,24.1483772 188.685125,24.6508406 C188.157108,24.9818598 187.500689,24.9027317 186.913712,24.8460233 C186.405348,24.6693038 185.984769,24.2552001 185.767273,23.7632871 C185.163263,22.1912755 186.191783,20.2249423 187.850517,19.9005171 C188.400808,19.8108386 189.003508,19.8596342 189.479116,20.180103 Z" id="Combined-Shape" fill="#F2A53B" fill-rule="nonzero"></path>
        </g>
    </g>
</svg>